<svg width="109" height="49" viewBox="0 0 109 49" fill="none" xmlns="http://www.w3.org/2000/svg">
<path d="M21.5476 37.8247C23.6458 37.8247 25.3528 39.7584 25.3528 42.1359C25.3528 44.461 23.6433 46.3521 21.5476 46.3521C19.4626 46.3521 17.7658 44.461 17.7658 42.1359C17.7658 39.7584 19.4626 37.8247 21.5476 37.8247ZM21.5476 35.2744C17.9006 35.2744 15.0445 38.2875 15.0445 42.1346C15.016 43.0126 15.1631 43.8875 15.477 44.7071C15.791 45.5267 16.2655 46.2744 16.8722 46.9057C17.4789 47.5369 18.2055 48.0389 19.0087 48.3817C19.812 48.7245 20.6755 48.9012 21.5479 48.9012C22.4203 48.9012 23.2838 48.7245 24.087 48.3817C24.8903 48.0389 25.6169 47.5369 26.2236 46.9057C26.8303 46.2744 27.3047 45.5267 27.6187 44.7071C27.9327 43.8875 28.0798 43.0126 28.0513 42.1346C28.0513 38.2882 25.1951 35.2744 21.5476 35.2744Z" fill="#EBEBEB"/>
<path d="M55.1781 37.8247C57.277 37.8247 58.984 39.7584 58.984 42.1359C58.984 44.461 57.2745 46.3521 55.1781 46.3521C53.0925 46.3521 51.3969 44.461 51.3969 42.1359C51.3969 39.7584 53.0925 37.8247 55.1781 37.8247ZM55.1781 35.2744C51.5312 35.2744 48.675 38.2875 48.675 42.1346C48.6479 43.0118 48.796 43.8856 49.1106 44.7041C49.4252 45.5226 49.8999 46.2691 50.5065 46.8993C51.1131 47.5295 51.8393 48.0305 52.6419 48.3727C53.4445 48.7149 54.3072 48.8912 55.1788 48.8912C56.0503 48.8912 56.913 48.7149 57.7156 48.3727C58.5182 48.0305 59.2444 47.5295 59.851 46.8993C60.4576 46.2691 60.9323 45.5226 61.2469 44.7041C61.5615 43.8856 61.7096 43.0118 61.6824 42.1346C61.6824 38.2882 58.8257 35.2744 55.1788 35.2744" fill="#EBEBEB"/>
<path d="M68.6239 35.1627C67.4681 35.1494 66.3475 35.5634 65.4746 36.3263V35.4803H62.8477V48.9475H65.5461V41.0226C65.5461 38.7038 67.2448 37.8769 68.834 37.8769C68.9284 37.8769 69.024 37.8807 69.1183 37.8858L69.4748 37.9049V35.231L69.1772 35.1959C68.9936 35.1732 68.8088 35.1619 68.6239 35.1621" fill="#EBEBEB"/>
<path d="M90.1451 31.2607H87.4473V48.9353H90.1451V31.2607Z" fill="#EBEBEB"/>
<path d="M95.6568 35.958H92.959V48.9841H95.6568V35.958Z" fill="#EBEBEB"/>
<path d="M95.6568 32.2939H92.959V34.7671H95.6568V32.2939Z" fill="#EBEBEB"/>
<path d="M103.949 35.2594C102.767 35.2408 101.619 35.6528 100.715 36.4197V35.5705H98.0879V48.9345H100.786V40.7048C100.773 40.3209 100.839 39.9385 100.979 39.5812C101.119 39.2239 101.33 38.8994 101.6 38.6278C101.87 38.3562 102.192 38.1433 102.547 38.0022C102.902 37.8611 103.282 37.7949 103.663 37.8077C105.331 37.8077 106.326 38.9082 106.326 40.7526V48.9345H109V40.8253C109 37.4462 107.017 35.2594 103.948 35.2594" fill="#EBEBEB"/>
<path d="M38.3089 44.9763C37.9798 45.4252 37.5493 45.7887 37.0529 46.0367C36.5566 46.2847 36.0087 46.4101 35.4547 46.4025C33.3697 46.4025 31.6729 44.5013 31.6729 42.1627C31.6729 39.7986 33.3697 37.8751 35.4547 37.8751C35.9197 37.8712 36.3807 37.9609 36.8108 38.1391C37.2408 38.3172 37.6311 38.5802 37.9588 38.9125L39.7468 36.9538C38.5713 35.8859 37.0384 35.3047 35.4553 35.3268C33.7219 35.4177 32.0894 36.1752 30.8944 37.4428C29.6994 38.7105 29.0332 40.3916 29.0332 42.1395C29.0332 43.8873 29.6994 45.5685 30.8944 46.8361C32.0894 48.1038 33.7219 48.8612 35.4553 48.9522C36.3474 48.9696 37.2328 48.7936 38.0515 48.4362C38.8702 48.0788 39.6029 47.5483 40.2001 46.8807L38.3089 44.9763Z" fill="#EBEBEB"/>
<path d="M46.6527 46.394C46.5545 46.3997 46.4577 46.4035 46.3608 46.4035C44.8919 46.4035 44.1777 45.6487 44.1777 44.0962V38.5379H46.9635V35.9156H44.1777V33.2793H41.5039V44.0955C41.5039 47.0653 43.2603 48.9837 45.9784 48.9837C46.2241 48.9834 46.4695 48.9685 46.7135 48.9391L47.0116 48.9047V46.371L46.6527 46.394Z" fill="#EBEBEB"/>
<path d="M79.7027 48.9975C75.2105 48.9975 71.5566 45.0739 71.5566 40.2501C71.5566 35.3918 75.2105 31.4383 79.7027 31.4383C81.5707 31.4114 83.3856 32.064 84.8141 33.2764L82.9704 35.3428C82.0712 34.5367 80.9066 34.0958 79.7027 34.1059C76.7592 34.1059 74.3647 36.8627 74.3647 40.2507C74.3647 43.603 76.7592 46.3305 79.7027 46.3305C80.42 46.3382 81.1302 46.1869 81.7828 45.8873C82.4355 45.5877 83.0148 45.1472 83.4795 44.597L85.427 46.6028C84.6873 47.3765 83.7974 47.9885 82.8126 48.4008C81.8277 48.813 80.7691 49.0165 79.7027 48.9987" fill="#EBEBEB"/>
<path d="M5.13544 46.1775H2.7143V34.0511H5.13544C5.9335 34.0394 6.7259 34.1876 7.46658 34.4871C8.20725 34.7866 8.88142 35.2314 9.44988 35.7955C10.0183 36.3597 10.4697 37.0321 10.7778 37.7735C11.086 38.5149 11.2446 39.3106 11.2446 40.1143C11.2446 40.918 11.086 41.7137 10.7778 42.4551C10.4697 43.1965 10.0183 43.8689 9.44988 44.4331C8.88142 44.9973 8.20725 45.442 7.46658 45.7415C6.7259 46.041 5.9335 46.1892 5.13544 46.1775ZM13.8849 40.1143V40.1111C13.8985 38.9511 13.6812 37.8001 13.2461 36.7259C12.811 35.6517 12.1668 34.6761 11.3514 33.8566C10.536 33.037 9.56593 32.3902 8.49838 31.954C7.43083 31.5179 6.28739 31.3014 5.13544 31.3172H0V48.914H5.13544C6.28739 48.9298 7.43083 48.7133 8.49838 48.2771C9.56593 47.841 10.536 47.1941 11.3514 46.3746C12.1668 45.555 12.811 44.5794 13.2461 43.5053C13.6812 42.4311 13.8985 41.28 13.8849 40.12V40.1169" fill="#EBEBEB"/>
<path d="M51.1315 28.7695C51.1189 28.7567 51.1189 28.7319 51.1062 28.7191C51.0068 28.4558 50.9194 28.1925 50.8447 28.0044C50.5884 27.326 50.3802 26.6302 50.2217 25.9221C50.0147 25.2963 49.9548 24.6306 50.047 23.9776C50.1625 23.6387 50.3491 23.329 50.5941 23.0693C50.8392 22.8097 51.137 22.6063 51.4671 22.4729C52.2902 22.0591 53.1234 21.6823 53.9706 21.3189C55.5648 20.6546 57.2218 20.0897 58.7534 19.287C61.3195 17.9481 63.5862 15.6497 64.0345 12.6646C64.2663 11.0444 63.9533 9.39267 63.1454 7.97222C62.3374 6.55177 61.0809 5.44421 59.5758 4.82577C58.5118 4.43924 57.3762 4.29361 56.2499 4.39923C56.2246 4.39923 56.1866 4.41198 56.1625 4.41198C55.569 4.46956 55.0155 4.73901 54.602 5.17163C54.1885 5.60426 53.9423 6.17153 53.9079 6.77097C53.9016 6.8335 53.9016 6.89651 53.9079 6.95904C53.9205 7.74898 53.9826 8.62692 53.9952 9.44556V9.4704C54.0006 9.59055 53.9714 9.70973 53.9112 9.81358C53.851 9.91744 53.7622 10.0016 53.6557 10.0559C53.5491 10.1102 53.4292 10.1324 53.3104 10.1198C53.1917 10.1072 53.079 10.0604 52.986 9.98492C52.9734 9.97217 52.9613 9.96006 52.9487 9.96006C52.0561 9.25117 51.0712 8.66876 50.0216 8.22907C50.0147 8.22995 50.0077 8.22925 50.0012 8.22705C49.9946 8.22484 49.9886 8.22118 49.9836 8.21633C49.8423 8.16819 49.7206 8.07459 49.6373 7.94992C49.554 7.82526 49.5137 7.67646 49.5227 7.52648V7.48887C49.5227 6.28451 49.5601 4.71674 49.586 3.58825C49.5797 3.55519 49.5797 3.52121 49.586 3.48814C49.6236 3.10778 49.7463 2.74093 49.9448 2.41509C50.1432 2.08925 50.4124 1.81288 50.732 1.6067C50.7507 1.5972 50.7677 1.58448 50.7821 1.56909C54.7798 -0.789897 60.435 -0.475594 64.0598 2.4215C65.8132 3.84876 67.1239 5.75194 67.8369 7.90583C68.5498 10.0597 68.6352 12.3742 68.0828 14.5754C67.0121 18.6768 63.7856 21.7371 60.0614 23.5179C58.816 24.1076 57.5206 24.5839 56.2505 25.1118C55.8143 25.2871 55.3913 25.4752 54.9678 25.6633C54.5068 25.8635 54.3074 26.0018 54.2954 26.5036C54.3629 27.161 54.3035 27.8255 54.1206 28.4602C53.9378 28.865 53.6439 29.2088 53.2735 29.451C53.0939 29.5696 52.8903 29.6465 52.6776 29.6763C52.4649 29.706 52.2482 29.6878 52.0433 29.6231C51.8384 29.5583 51.6504 29.4485 51.4927 29.3017C51.335 29.1548 51.2116 28.9746 51.1315 28.7739" fill="#FFFFEF"/>
<path d="M54.0198 12.214C53.9698 11.4241 52.9859 10.7087 52.4002 10.2701C51.527 9.54803 50.5133 9.01811 49.4244 8.71444C48.2847 8.44902 47.0994 8.45338 45.9617 8.72719C44.934 8.98926 43.9766 9.47723 43.1583 10.156C42.34 10.8349 41.6811 11.6877 41.2289 12.6533C40.3749 14.6855 40.3257 16.9697 41.0915 19.0372C41.911 21.2526 43.2085 23.2573 44.8904 24.9067C46.2856 26.208 47.7832 27.3933 49.3687 28.4509L49.3782 28.4573L49.7404 28.7072L49.8182 28.7601C49.9341 28.8392 50.0455 28.915 50.1468 28.9826C50.1715 28.9947 50.1842 29.0075 50.2102 29.0202C50.3469 29.1203 50.6337 29.0955 50.509 28.7442C50.4942 28.7159 50.4817 28.6865 50.4716 28.6562C49.8676 27.3815 49.5057 26.0042 49.4048 24.5955C49.3883 24.3222 49.3994 24.048 49.4377 23.7769V23.7393C49.5048 23.3395 49.646 23.3797 49.5365 23.2739C49.4934 23.2305 49.4098 23.1642 49.2509 23.0258C49.2243 23.0035 49.2059 22.9882 49.1762 22.9621L49.1389 22.9245C48.4917 22.3483 47.8802 21.7327 47.3078 21.0813C46.4447 20.112 45.7536 19.0004 45.2646 17.7953C44.5922 15.9266 44.829 13.405 47.1584 12.9536C47.6697 12.8699 48.1933 12.9042 48.6895 13.0541C49.1857 13.204 49.6416 13.4655 50.0227 13.8188C50.8458 14.5335 51.7322 15.0601 52.813 14.5086C53.2207 14.2933 53.5543 13.9589 53.77 13.5493C53.9857 13.1398 54.0734 12.6741 54.0217 12.2134" fill="#EBEBEB"/>
</svg>
