<svg xmlns="http://www.w3.org/2000/svg" viewBox="0 0 100 50" fill="none">
  <rect width="100" height="50" rx="4" fill="#0077C8"/>
  <g fill="white">
    <!-- S -->
    <path d="M18 34c-4.5 0-7.5-2-8-5.5h4c.3 1.5 1.8 2.5 4 2.5 2.3 0 3.5-1 3.5-2.3 0-1.5-1.2-2-4-2.7-4-1-7-2.2-7-6 0-3.5 3-5.5 7.5-5.5 4 0 7 2 7.5 5h-4c-.3-1.2-1.5-2-3.5-2-2 0-3.2.8-3.2 2 0 1.3 1 1.8 4 2.5 4.2 1 7 2.5 7 6.2 0 3.8-3.2 5.8-7.8 5.8z"/>
    <!-- A -->
    <path d="M38 34h-4.5l-1.5-4h-7l-1.5 4H19l7-19h5l7 19zm-7.5-7.5l-2-6-2 6h4z"/>
    <!-- P -->
    <path d="M56 22c0 4-2.8 6.5-7.5 6.5H45V34h-4V15h7.5c4.7 0 7.5 2.5 7.5 7zm-4.2.2c0-2.2-1.3-3.5-3.8-3.5H45v7h3c2.5 0 3.8-1.3 3.8-3.5z"/>
  </g>
  <!-- Registered trademark symbol area - simplified -->
  <circle cx="82" cy="36" r="6" stroke="white" stroke-width="1.5" fill="none"/>
  <text x="82" y="40" text-anchor="middle" font-family="Arial" font-size="9" fill="white">R</text>
</svg>
