<svg xmlns="http://www.w3.org/2000/svg" viewBox="0 0 128 64" role="img" aria-label="SAP">
  <path fill="#008FD3" d="M0 0h96.5L128 64H0V0z"/>
  <g fill="#fff">
    <path d="M28.2 44.6c-5.8 0-9.7-2.6-10.3-7.1h5.2c.4 2 2.2 3.2 5 3.2 2.9 0 4.5-1.2 4.5-2.9 0-2-1.6-2.6-5.2-3.5-5.2-1.3-9.1-2.9-9.1-7.7 0-4.5 3.9-7.2 9.7-7.2 5.2 0 9.1 2.6 9.7 6.5h-5.2c-.4-1.6-2-2.6-4.6-2.6-2.6 0-4.2 1-4.2 2.6 0 1.7 1.3 2.3 5.2 3.2 5.5 1.3 9.1 3.2 9.1 8 0 4.9-4.1 7.5-10 7.5z"/>
    <path d="M52.8 44.6h-5.3l-1.8-4.7h-8.3l-1.8 4.7h-5.3l8.1-22.4h5.8l8.6 22.4zm-8.7-8.6l-2.2-6.5-2.2 6.5h4.4z"/>
    <path d="M73.2 28.8c0 4.9-3.4 8-9.2 8h-1.5v7.8h-5.2V18.2h8.2c5.8 0 9.2 3.1 9.2 8.2zm-5.4.2c0-2.7-1.6-4.3-4.6-4.3h-3v8.6h3c3 0 4.6-1.6 4.6-4.3z"/>
    <circle cx="104" cy="46" r="7.5" fill="none" stroke="#fff" stroke-width="2"/>
    <text x="104" y="49.5" text-anchor="middle" font-family="Arial, Helvetica, sans-serif" font-size="10" font-weight="700" fill="#fff">R</text>
  </g>
</svg>
