<svg width="460" height="158" viewBox="0 0 460 158" fill="none" xmlns="http://www.w3.org/2000/svg">
<path d="M448.817 76.818H422.255C419.678 70.295 416.804 65.206 401.911 65.206C391.63 65.206 387.251 69.44 387.251 73.697C387.251 78.339 390.909 82.257 402.255 84.772L426.317 91.192C442.064 95.402 449.709 107.901 449.709 121.108C449.709 128.455 448.121 137.334 441.146 144.595C435.933 150.021 428.051 157.181 401.911 157.181C365.965 157.181 354.151 134.46 354.151 120.729H382.14C384.891 130.754 391.768 134.571 405.402 134.571C414.841 134.571 422.947 131.204 422.947 123.981C422.947 117.112 417.079 114.527 409.493 112.454L390.483 107.323C381.318 104.533 373.655 102.3 368.246 97.716C354.081 85.716 355.112 64.044 370.516 52.775C379.044 46.54 387.785 43.284 401.657 43.284C417.957 43.284 427.258 47.938 434.595 52.987C441.095 57.46 448.817 68.252 448.817 76.818ZM0.160156 0C0.377156 0.95203 55.7641 155.875 55.7641 155.875H88.8071L139.705 26.965H455.824L458.224 9.53674e-06H115.411L73.1712 106.887L35.1412 0H0.160156ZM273.564 100.149L314.83 155.875H340.65V45.659H310.848V105.601L273.418 45.659H244.884V155.875H273.564V100.149ZM459.404 150.15C459.404 146.946 456.847 144.309 453.563 144.309C450.279 144.309 447.688 146.978 447.688 150.183C447.688 153.386 450.245 156.023 453.531 156.023C456.815 156.023 459.404 153.354 459.404 150.15ZM458.724 150.15C458.724 153.03 456.491 155.376 453.531 155.376C450.586 155.376 448.368 153.062 448.368 150.183C448.368 147.303 450.602 144.956 453.563 144.956C456.508 144.956 458.724 147.27 458.724 150.15ZM456.346 148.937C456.346 147.642 455.391 146.881 453.903 146.881H451.136V153.111H452.51V151.105H453.595L454.922 153.111H456.524L455.003 150.878C455.796 150.587 456.346 149.956 456.346 148.937ZM454.954 149.018C454.954 149.552 454.582 149.924 453.887 149.924H452.51V148.095H453.853C454.532 148.095 454.954 148.403 454.954 149.018ZM116.04 155.875H147.744L153.662 138.633H195.623L201.695 155.875H232.908L192.967 45.659H159.388L116.04 155.875ZM162.519 118.693L174.798 82.054L186.919 118.693H162.519Z" fill="#D11317"/>
</svg>
